<?xml version="1.0" standalone="no"?>
<!DOCTYPE svg PUBLIC "-//W3C//DTD SVG 20010904//EN"
 "http://www.w3.org/TR/2001/REC-SVG-20010904/DTD/svg10.dtd">
<svg version="1.0" xmlns="http://www.w3.org/2000/svg"
 width="228.000000pt" height="170.000000pt" viewBox="0 0 228.000000 170.000000"
 preserveAspectRatio="xMidYMid meet">

<g transform="translate(0.000000,170.000000) scale(0.100000,-0.100000)"
fill="#000000" stroke="none">
<path d="M582 1286 c1 -36 0 -66 -4 -66 -12 0 -10 -38 3 -63 6 -12 22 -34 36
-48 l24 -27 -35 -54 c-19 -31 -44 -58 -55 -61 -22 -5 -30 -50 -12 -61 5 -3 4
-27 -1 -55 -18 -103 25 -236 98 -301 80 -70 166 -89 300 -67 100 17 132 14
164 -16 20 -18 25 -19 44 -7 65 41 71 42 173 25 114 -20 167 -15 240 21 64 31
116 90 143 162 27 71 27 292 1 299 -9 3 -30 29 -48 60 l-32 55 29 37 c29 36
51 101 34 101 -5 0 -7 25 -6 56 5 76 -9 86 -44 33 -16 -24 -50 -56 -76 -72
l-47 -29 -53 18 c-75 25 -196 23 -270 -5 l-56 -22 -64 22 c-80 28 -212 30
-275 4 -41 -17 -43 -16 -85 7 -23 12 -57 43 -76 68 -19 25 -39 47 -44 49 -6 2
-8 -23 -6 -63z m128 -81 c17 -9 79 -29 139 -44 114 -30 137 -40 188 -78 34
-26 67 -86 77 -140 5 -31 4 -33 -24 -33 -19 0 -31 6 -35 19 -18 59 -109 110
-203 115 -83 5 -171 37 -217 80 -36 34 -46 60 -20 50 19 -8 19 13 0 46 -8 14
-14 36 -15 49 0 22 1 22 39 -12 22 -20 54 -43 71 -52z m934 18 c-10 -21 -20
-42 -22 -47 -3 -5 5 -7 16 -4 18 5 19 3 10 -18 -23 -51 -172 -121 -233 -109
-69 12 -178 -42 -211 -106 -10 -21 -22 -29 -40 -29 -25 0 -26 2 -19 37 21 115
88 169 260 213 113 29 182 61 220 100 36 38 45 21 19 -37z m-884 -195 c0 -5
-18 -8 -40 -8 -43 0 -50 -12 -25 -40 15 -16 12 -17 -34 -7 l-50 9 16 27 c37
59 39 60 88 42 25 -9 45 -19 45 -23z m859 -1 l30 -44 -55 -10 -54 -10 20 22
c29 31 26 35 -27 35 -25 0 -43 3 -39 8 6 5 76 37 93 41 1 1 15 -19 32 -42z
m-649 -52 c40 -28 70 -77 70 -115 0 -69 -66 -130 -141 -130 -151 1 -232 200
-107 264 47 24 129 15 178 -19z m508 8 c101 -75 18 -253 -118 -253 -83 0 -140
53 -140 131 0 57 32 101 95 131 50 23 125 19 163 -9z m-790 -75 c7 -7 12 -23
12 -35 0 -52 51 -123 112 -154 98 -50 218 -4 253 98 7 21 16 37 19 36 3 -2 13
-3 21 -3 28 0 15 -32 -35 -90 l-50 -57 16 -46 c9 -26 33 -66 54 -89 l38 -43
26 25 c15 13 41 52 58 87 l30 62 -51 59 c-55 63 -63 87 -31 95 16 4 22 -1 26
-21 27 -116 163 -169 270 -107 54 32 79 67 96 136 13 49 17 54 44 57 19 2 36
-3 44 -12 7 -9 21 -16 31 -16 16 0 19 -8 20 -47 4 -167 -37 -255 -145 -310
-57 -30 -126 -35 -269 -19 -65 8 -83 6 -116 -9 -37 -16 -40 -16 -65 0 -27 18
-57 18 -227 -1 -108 -12 -210 38 -264 130 -31 53 -49 143 -40 205 5 39 11 49
38 62 40 20 69 23 85 7z m518 -245 c-23 -49 -66 -113 -77 -113 -11 0 -68 84
-80 120 -10 27 -7 34 33 79 l43 49 50 -48 49 -49 -18 -38z"/>
<path d="M870 910 c-29 -29 -26 -74 6 -99 35 -27 59 -26 89 4 31 30 32 65 2
93 -29 27 -71 28 -97 2z m87 -6 c3 -8 1 -20 -4 -25 -14 -14 -43 0 -43 22 0 24
38 26 47 3z"/>
<path d="M1328 920 c26 -11 28 -23 7 -40 -19 -16 -47 4 -38 27 4 11 3 14 -6 9
-24 -15 -32 -55 -16 -85 38 -75 155 -25 125 53 -11 29 -39 46 -72 45 l-23 0
23 -9z"/>
</g>
</svg>
