<?xml version="1.0" standalone="no"?>
<!DOCTYPE svg PUBLIC "-//W3C//DTD SVG 20010904//EN"
 "http://www.w3.org/TR/2001/REC-SVG-20010904/DTD/svg10.dtd">
<svg version="1.0" xmlns="http://www.w3.org/2000/svg"
 width="354.000000pt" height="472.000000pt" viewBox="0 0 354.000000 472.000000"
 preserveAspectRatio="xMidYMid meet">

<g transform="translate(0.000000,472.000000) scale(0.100000,-0.100000)"
fill="#000000" stroke="none">
<path d="M0 2360 l0 -2360 1770 0 1770 0 0 2360 0 2360 -1770 0 -1770 0 0
-2360z m2387 1848 c-3 -8 -6 -5 -6 6 -1 11 2 17 5 13 3 -3 4 -12 1 -19z m-325
-180 c66 -39 114 -85 127 -121 6 -15 24 -35 40 -45 37 -21 46 -60 20 -85 -12
-11 -19 -13 -19 -6 0 7 -3 10 -6 6 -3 -3 2 -18 11 -34 13 -22 14 -34 6 -56 -6
-15 -17 -27 -26 -27 -8 0 -15 -4 -15 -10 0 -5 -23 -10 -52 -10 -45 0 -137 -11
-205 -26 -13 -2 -23 -12 -23 -22 0 -9 -11 -35 -24 -56 -13 -22 -22 -45 -19
-52 2 -7 0 -15 -6 -19 -6 -3 -11 -29 -11 -57 0 -44 4 -54 37 -86 39 -40 62
-29 26 11 -11 12 -23 28 -27 34 -10 18 12 53 33 53 10 0 45 16 77 35 59 36 84
43 84 25 0 -6 -12 -13 -27 -16 -38 -7 -107 -56 -111 -77 -3 -14 4 -17 40 -16
24 1 33 4 21 6 -13 2 -23 8 -23 13 0 9 39 40 51 40 12 0 16 -49 5 -53 -20 -8
0 -17 46 -21 57 -6 71 4 72 48 1 41 12 45 51 14 l27 -21 -28 -16 c-16 -8 -32
-14 -36 -13 -5 1 -8 -2 -8 -8 0 -9 14 -14 33 -11 4 0 7 -3 7 -9 0 -5 7 -10 16
-10 14 0 15 -2 3 -16 -12 -15 -11 -16 9 -10 12 3 31 9 42 12 11 3 20 13 20 23
0 18 35 61 49 61 14 0 27 -23 29 -48 0 -13 9 -30 19 -37 14 -11 15 -17 6 -38
-7 -14 -9 -35 -6 -47 7 -26 -19 -141 -63 -280 -35 -108 -66 -170 -84 -170 -6
0 -20 -9 -32 -20 -12 -11 -28 -20 -35 -20 -7 0 -13 -6 -13 -13 0 -7 -10 -27
-22 -44 -25 -33 -64 -108 -97 -185 -15 -34 -27 -48 -40 -48 -13 0 -21 -8 -23
-22 -3 -21 -9 -23 -60 -24 -31 -1 -60 -4 -65 -7 -5 -3 -15 -2 -22 2 -6 4 -35
4 -63 0 -34 -6 -58 -4 -72 3 -11 7 -30 11 -40 9 -13 -2 -17 2 -13 12 9 24 -19
40 -58 33 -32 -6 -35 -4 -48 26 -13 29 -57 77 -165 177 -41 38 -42 83 -3 86
14 1 27 7 29 13 8 24 51 13 67 -18 8 -16 21 -27 28 -25 6 2 27 -16 46 -41 19
-25 48 -51 65 -58 32 -13 184 -15 204 -2 6 3 22 2 36 -4 34 -13 85 9 145 63
53 49 101 77 128 77 11 0 28 9 37 19 16 17 16 22 3 48 -15 28 -57 72 -57 59 0
-4 -10 -1 -22 6 -13 7 -36 13 -52 14 -16 1 -32 7 -36 13 -5 8 -14 9 -33 2 -20
-8 -31 -6 -48 8 l-22 17 39 18 c49 23 74 45 74 64 0 13 -3 12 -19 -2 -16 -15
-25 -16 -57 -7 -34 9 -42 8 -83 -19 -24 -17 -52 -30 -60 -30 -18 0 -82 37 -92
52 -4 7 -25 6 -59 -1 -37 -8 -57 -8 -64 -1 -14 14 -26 13 -26 -3 0 -18 39 -53
68 -62 35 -10 25 -33 -12 -26 -5 1 -22 -3 -37 -9 -20 -9 -33 -9 -49 0 -18 10
-31 7 -78 -16 -31 -15 -60 -31 -63 -36 -10 -15 -76 2 -98 26 -11 12 -34 55
-51 96 -28 67 -30 83 -26 150 6 89 13 137 21 150 3 6 0 10 -8 10 -10 0 -15 12
-15 40 -1 37 1 39 19 30 11 -6 19 -21 19 -35 0 -22 4 -25 35 -25 19 0 35 -4
35 -9 0 -9 48 0 90 17 24 10 24 11 3 11 -13 1 -23 4 -23 9 0 4 10 8 23 9 87 8
97 14 103 54 4 21 9 39 13 39 12 0 66 -49 54 -50 -28 0 -11 -20 17 -20 34 0
37 -10 13 -46 -13 -20 -14 -27 -4 -34 9 -5 11 -17 5 -41 -9 -38 -9 -35 0 -71
4 -16 1 -32 -7 -40 -20 -20 -47 -62 -47 -72 0 -5 11 3 26 19 19 21 32 26 55
23 25 -4 32 -1 40 19 15 39 12 66 -7 59 -9 -4 -22 -2 -29 4 -14 12 15 107 47
152 10 15 16 28 12 28 -3 0 -2 6 3 13 28 34 21 114 -13 157 -7 8 -14 24 -15
34 -6 31 -84 64 -164 71 -173 14 -172 13 -196 134 -12 62 -12 62 19 104 16 23
40 45 53 48 13 4 20 8 14 8 -10 2 19 22 32 22 5 0 15 6 23 14 8 7 33 17 55 20
22 4 51 13 65 20 31 15 108 26 115 16 6 -11 64 -6 98 8 16 6 43 11 60 11 18 0
39 5 47 10 8 5 39 10 67 10 42 0 64 -7 105 -32z m474 -345 c-15 -144 -31 -265
-40 -285 -9 -21 -15 -26 -15 -15 -1 10 3 27 9 37 7 13 47 360 61 525 0 6 2 6
5 -1 2 -6 -7 -123 -20 -261z m-1075 -146 c-18 -18 -13 -26 22 -30 17 -2 -5 -4
-51 -4 -54 0 -81 4 -79 11 2 6 16 12 30 14 15 2 25 7 22 12 -3 4 11 8 31 8 26
0 33 -3 25 -11z m737 2 c26 -6 54 -20 64 -30 9 -11 23 -16 32 -13 11 4 16 1
16 -10 0 -20 -38 -21 -63 -2 -10 8 -47 22 -83 32 -42 11 -60 20 -52 25 17 11
31 11 86 -2z m-58 -59 c0 -5 -2 -10 -4 -10 -3 0 -8 5 -11 10 -3 6 -1 10 4 10
6 0 11 -4 11 -10z m-564 -38 c21 -16 45 -36 53 -45 23 -29 -10 -21 -38 9 -13
14 -40 34 -60 44 -28 15 -31 19 -15 20 12 0 39 -13 60 -28z m-178 -19 c-1 -10
2 -28 6 -40 9 -27 6 -28 -42 -7 l-37 15 28 25 c33 28 46 30 45 7z m53 -6 c-13
-13 -26 -3 -16 12 3 6 11 8 17 5 6 -4 6 -10 -1 -17z m44 3 c3 -5 -1 -10 -10
-10 -9 0 -13 5 -10 10 3 6 8 10 10 10 2 0 7 -4 10 -10z m605 0 c0 -5 -4 -10
-10 -10 -5 0 -10 5 -10 10 0 6 5 10 10 10 6 0 10 -4 10 -10z m40 0 c0 -5 -4
-10 -10 -10 -5 0 -10 5 -10 10 0 6 5 10 10 10 6 0 10 -4 10 -10z m-1104 -72
c19 -24 22 -33 12 -39 -7 -5 -17 -4 -22 1 -15 15 -30 12 -19 -2 22 -28 23 -65
3 -83 -20 -18 -29 -51 -11 -40 5 3 13 1 16 -5 5 -8 11 -7 21 1 8 6 17 9 20 6
11 -11 22 -142 13 -157 -7 -13 -8 -12 -9 2 0 9 -12 23 -27 30 -21 10 -30 24
-37 56 -14 61 -27 52 -20 -13 5 -38 3 -55 -4 -55 -13 0 -19 23 -26 100 -3 30
-8 79 -12 108 -4 37 -2 58 6 65 10 9 11 7 7 -11 -3 -13 -3 -31 1 -40 4 -11 10
0 18 33 8 40 8 54 -4 72 -14 22 -14 23 17 12 17 -6 42 -25 57 -41z m1552 16
c-10 -21 -9 -27 3 -35 9 -6 10 -9 2 -9 -8 0 -12 -14 -11 -37 1 -21 3 -32 6
-25 9 27 24 11 18 -20 -3 -18 -8 -60 -11 -93 -7 -83 -12 -102 -31 -109 -13 -5
-14 -2 -8 11 4 10 10 43 12 74 3 54 2 57 -34 88 l-37 33 31 44 c18 24 27 44
22 44 -5 0 -18 -14 -30 -30 -12 -17 -26 -28 -31 -25 -11 8 -12 55 -1 55 5 0
29 13 53 30 54 36 62 37 47 4z m72 -68 c0 -34 -7 -86 -15 -116 -8 -30 -20 -86
-25 -125 -21 -149 -29 -174 -60 -190 -17 -9 -49 -14 -76 -12 l-47 2 -24 -95
c-13 -52 -39 -128 -58 -169 -35 -72 -35 -75 -35 -207 0 -83 -4 -134 -10 -134
-12 0 -13 10 -10 169 2 107 5 129 25 170 28 54 45 106 75 218 17 65 25 80 38
76 12 -5 14 -1 10 15 -8 30 4 35 40 16 24 -11 36 -12 51 -4 29 15 39 37 55
131 8 46 22 115 31 154 9 39 15 97 13 133 -2 52 -1 60 10 45 6 -9 12 -44 12
-77z m-135 -196 c0 -27 -6 -37 -25 -47 -31 -15 -34 -6 -20 47 8 30 16 40 28
38 12 -2 17 -13 17 -38z m-1490 -87 c30 -34 31 -49 5 -56 -49 -13 -68 8 -54
61 8 29 20 28 49 -5z m1503 -27 c0 -52 -12 -64 -45 -46 -36 20 -35 36 2 60 40
26 43 26 43 -14z m-648 -16 c-8 -5 -19 -10 -25 -10 -5 0 -3 5 5 10 8 5 20 10
25 10 6 0 3 -5 -5 -10z m-806 -55 c-4 -9 0 -15 10 -15 35 0 13 -19 -30 -26
-53 -8 -86 4 -110 41 -18 27 -12 47 8 27 21 -21 82 -15 97 10 l14 22 8 -22 c5
-12 6 -29 3 -37z m699 -7 c6 -8 17 -22 23 -33 5 -10 28 -24 50 -31 21 -6 35
-13 29 -14 -5 -1 -2 -4 7 -8 26 -11 5 -35 -28 -34 -16 0 -63 2 -104 2 -77 2
-98 13 -77 39 7 8 10 17 7 20 -3 3 10 7 28 9 36 4 45 31 12 39 -11 3 -20 13
-20 23 0 16 5 17 30 10 17 -5 36 -15 43 -22z m81 -167 c53 -13 63 -25 46 -56
-13 -24 -17 -25 -110 -25 -91 0 -98 2 -121 26 l-24 25 25 19 c28 22 115 26
184 11z m370 -532 c-4 -7 0 -9 14 -5 18 6 21 1 25 -41 10 -93 9 -194 -3 -246
-6 -29 -5 -44 2 -48 16 -10 -18 -124 -62 -210 -28 -54 -42 -232 -22 -271 13
-23 10 -31 -32 -102 -25 -42 -101 -160 -168 -261 -98 -147 -125 -182 -136
-173 -7 6 -50 66 -94 132 -108 161 -154 224 -194 266 -38 40 -63 93 -69 148
-13 116 -35 222 -54 258 -12 23 -23 61 -25 85 -2 24 -6 51 -9 59 -3 8 -8 27
-11 42 -3 15 -12 33 -19 40 -34 37 -38 47 -27 67 9 17 8 20 -5 15 -19 -8 -19
0 1 42 9 19 14 45 12 58 -4 18 0 26 14 29 10 3 18 14 18 26 0 29 24 26 40 -4
7 -13 17 -22 22 -19 5 3 12 -3 15 -15 3 -12 10 -21 15 -21 16 0 47 -43 48 -66
0 -11 11 -31 25 -44 14 -13 25 -28 25 -33 0 -5 9 -18 21 -28 16 -14 18 -22 10
-37 -15 -29 21 -72 60 -72 16 0 29 2 29 5 0 12 -45 55 -57 55 -14 0 -18 16 -5
24 5 3 7 19 4 36 -5 37 19 60 58 53 14 -2 48 -6 76 -9 46 -6 52 -4 67 19 17
27 9 44 -17 34 -25 -10 -91 30 -119 71 -15 23 -27 46 -27 51 0 5 -7 14 -15 21
-9 7 -12 17 -8 21 13 12 144 19 164 9 13 -8 21 -6 29 7 8 13 13 15 17 5 3 -9
9 -10 17 -3 9 7 23 7 44 -1 31 -12 43 -28 22 -28 -14 0 -13 -33 2 -48 9 -9 9
-18 -1 -38 -15 -33 0 -53 41 -56 24 -2 26 -5 21 -33 l-6 -30 22 19 c11 11 26
36 31 56 12 46 48 91 118 153 56 48 69 56 56 36z m-324 -1479 c0 -5 -4 -10
-10 -10 -5 0 -10 5 -10 10 0 6 5 10 10 10 6 0 10 -4 10 -10z"/>
<path d="M2020 3320 c0 -10 74 -33 96 -28 11 2 -5 10 -38 19 -32 9 -58 13 -58
9z"/>
<path d="M1895 3150 c-3 -5 15 -23 40 -40 49 -34 57 -30 22 11 -25 29 -54 43
-62 29z"/>
</g>
</svg>
